<svg
    xmlns="http://www.w3.org/2000/svg"
    class="icon icon-tabler icon-tabler-device-speaker"
    width="24" height="24"
    viewBox="0 0 24 24"
    stroke-width="1.5"
    stroke="white"
    fill="none"
    stroke-linecap="round"
    stroke-linejoin="round"
>
    <!-- canvas background -->
    <path
        stroke="none"
        d="M0 0h24v24H0z" 
        fill="transparent"
    />

    <!-- speaker -->
    <path
        stroke="black"
        fill="white"
        d="M5 3m0 2a2 2 0 0 1 2 -2h10a2 2 0 0 1 2 2v14a2 2 0 0 1 -2 2h-10a2 2 0 0 1 -2 -2z"
    />

    <!-- woofer -->
    <path
        stroke="black"
        fill="black"
        d="M12 14m-3 0a3 3 0 1 0 6 0a3 3 0 1 0 -6 0"
    />

    <!-- tweeter -->
    <path
        stroke="black"
        d="M12 7l0 .01"
    />
</svg>
